# xmcd
#
# Track frame offsets: 
#        150
#        11296
#        26363
#        37667
#        53064
#        67071
#        82304
#        91292
#        102050
#        119955
#        129976
#        146212
#        159843
#        178888
#        200493
#
# Disc length: 2894 seconds
#
# Revision: 1
# Processed by: cddbd v1.5.2PL0 Copyright (c) Steve Scherf et al.
# Submitted via: ExactAudioCopyFreeDBPlugin 1.0
#
DISCID=c90b4c0f
DTITLE=k.d. lang and The Reclines - A Truly Western Experience (25th Ann
DTITLE=iversary Edition)
DYEAR=2010
DGENRE=Country
TTITLE0=Friday Dance Promenade (from 1983 debut 7" vinyl)
TTITLE1=Damned Old Dog (from 1983 debut 7" vinyl)
TTITLE2=Bopalena
TTITLE3=Pine And Stew
TTITLE4=Up To Me
TTITLE5=Tickled Pink
TTITLE6=Hanky Panky
TTITLE7=There You Go
TTITLE8=Busy Being Blue
TTITLE9=Stop, Look And Listen
TTITLE10=Hooked On Junk
TTITLE11=Burrs Under Your Saddle (Demo)
TTITLE12=Hungry For Love (Live)
TTITLE13=Johnny Get Angry (Live)
TTITLE14=Mercy (Live)
EXTD=
EXTT0=
EXTT1=
EXTT2=
EXTT3=
EXTT4=
EXTT5=
EXTT6=
EXTT7=
EXTT8=
EXTT9=
EXTT10=
EXTT11=
EXTT12=
EXTT13=
EXTT14=
PLAYORDER=
